<?xml version="1.0" encoding="utf-8"?>
<!-- Generated by IcoMoon.io -->
<!DOCTYPE svg PUBLIC "-//W3C//DTD SVG 1.1//EN" "http://www.w3.org/Graphics/SVG/1.1/DTD/svg11.dtd">
<svg version="1.1" xmlns="http://www.w3.org/2000/svg" xmlns:xlink="http://www.w3.org/1999/xlink" width="24" height="24" viewBox="0 0 24 24">
<path fill='#C66F21' d="M9.083 5.741c0-0.125 0.016-0.403 0.056-0.824 0.035-0.419 0.195-0.864 0.48-1.325s0.741-0.875 1.381-1.243c0.635-0.363 1.552-0.547 2.752-0.547h3.368v3.68h-2.472c-0.243 0-0.469 0.091-0.677 0.272-0.203 0.181-0.309 0.355-0.309 0.515v2.285h3.459c-0.035 0.451-0.077 0.885-0.12 1.307l-0.139 1.109c-0.056 0.376-0.112 0.725-0.165 1.043h-3.056v10.197h-4.56v-10.197h-2.221v-3.461h2.221v-2.811z"></path>
</svg>
