<?xml version="1.0"?>
<!--Icons from directory ""-->
<svg xmlns="http://www.w3.org/2000/svg" width="24" height="312" viewBox="0 0 24 312"><svg xmlns:xlink="http://www.w3.org/1999/xlink" height="24" width="24" version="1.1" viewBox="0 0 24 24" id="arrow-down-gray" y="0"><path d="m12 2q0.414 0 0.707 0.293t0.293 0.707v15.586l5.289-5.297q0.289-0.289 0.711-0.289 0.43 0 0.715 0.285t0.285 0.715q0 0.422-0.289 0.711l-7 7q-0.289 0.289-0.711 0.289t-0.711-0.289l-7-7q-0.289-0.289-0.289-0.711 0-0.43 0.285-0.715t0.715-0.285q0.422 0 0.711 0.289l5.289 5.297v-15.586q0-0.414 0.293-0.707t0.707-0.293z" fill="#a2a2a2"/></svg><svg xmlns:xlink="http://www.w3.org/1999/xlink" height="24" width="24" version="1.1" viewBox="0 0 24 24" id="arrow-down-white" y="24"><path d="m12 2q0.414 0 0.707 0.293t0.293 0.707v15.586l5.289-5.297q0.289-0.289 0.711-0.289 0.43 0 0.715 0.285t0.285 0.715q0 0.422-0.289 0.711l-7 7q-0.289 0.289-0.711 0.289t-0.711-0.289l-7-7q-0.289-0.289-0.289-0.711 0-0.43 0.285-0.715t0.715-0.285q0.422 0 0.711 0.289l5.289 5.297v-15.586q0-0.414 0.293-0.707t0.707-0.293z" fill="#fff"/></svg><svg xmlns:xlink="http://www.w3.org/1999/xlink" height="24" width="14" version="1.1" viewBox="0 0 14 24" id="dev-logo" y="48"><path d="m6.971 0.524s2.6 2.023 4.479 5.093l-3.431 8.975-4.009-11.034h-0.036c1.517-1.878 2.998-3.034 2.998-3.034zm-6.411 11.214c0-2.33 0.903-4.497 2.041-6.284l4.424 11.792-1.625 4.262c-1.914-1.932-4.84-5.58-4.84-9.77zm6.411 11.215l5.688-14.916c0.451 1.156 0.722 2.402 0.722 3.702 0.018 6.104-6.248 11.07-6.411 11.214z" fill="#C66F21"/></svg><svg xmlns:xlink="http://www.w3.org/1999/xlink" height="24" width="24" version="1.1" viewBox="0 0 24 24" id="fb" y="72"><path d="m9.083 5.741c0-0.125 0.016-0.403 0.056-0.824 0.035-0.419 0.195-0.864 0.48-1.325s0.741-0.875 1.381-1.243c0.635-0.363 1.552-0.547 2.752-0.547h3.368v3.68h-2.472c-0.243 0-0.469 0.091-0.677 0.272-0.203 0.181-0.309 0.355-0.309 0.515v2.285h3.459c-0.035 0.451-0.077 0.885-0.12 1.307l-0.139 1.109c-0.056 0.376-0.112 0.725-0.165 1.043h-3.056v10.197h-4.56v-10.197h-2.221v-3.461h2.221v-2.811z" fill="#C66F21"/></svg><svg xmlns:xlink="http://www.w3.org/1999/xlink" id="logo" xml:space="preserve" height="24" viewBox="0 0 24 24" width="24" version="1.1" y="96" x="0px" enable-background="new 0 0 24 24"><path d="m9.901 11.56c-0.845 0.013-1.283-0.184-1.832 0.237-0.72 0.549-1.419 2.188-1.64 2.496-0.424 0.589-0.797 0.596-1.339 0.627-0.539 0.029-0.957 0.907-1.499 1.205s-1.544 0.373-1.544 0.373 0.6 0.251 1.709-0.02c1.109-0.27 0.816-0.922 1.661-0.916 0.845 0.004 1.285-0.299 1.544-0.66 0.501-0.698 0.8-2.468 2.064-2.563 2.808-0.208 4.04-2.064 4.04-2.064s-1.285 1.254-3.164 1.285z" fill="#fff"/><path d="m19.747 10.536c1.248 0.192 2.203 0.037 2.203 0.037s-2.456-0.757-4.523-2.448c-0.655-0.536-1.239-1.024-1.866-0.464-0.613 0.547-0.908 1.248-2.012 2.659-0.236 0.304-1.144 1.317-1.781 1.672-1.096 0.607-2.603 0.669-2.603 0.669s1.333 0.274 1.952 0.211c2.229-0.229 4.484-3.413 4.484-3.413 0.405-0.528 0.856-0.301 1.438 0.077 0.148 0.099 3.117 1.896 3.163 2.219 0.026 0.184-2.363-0.349-2.604-0.053-0.293 0.36 1.811 1.7 1.811 1.7s-1.268-0.927-0.766-1.187c0.355-0.184 2.531 0.31 2.709 0.101 0.315-0.372-1.605-1.78-1.605-1.78z" fill="#fff"/></svg><svg xmlns:xlink="http://www.w3.org/1999/xlink" height="24" width="24" version="1.1" viewBox="0 0 24 24" id="note" y="120"><g fill="#ccc"><path d="m19.509 12.056c-0.485 0-0.88 0.395-0.88 0.88v4.456c0 1.291-0.813 2.464-2.021 2.915-0.347 0.131-0.712 0.195-1.088 0.195h-8.912c-1.715 0-3.109-1.395-3.109-3.109v-8.909c0-1.715 1.395-3.109 3.109-3.109h4.456c0.485 0 0.88-0.395 0.88-0.88s-0.395-0.88-0.88-0.88h-4.456c-2.685 0-4.869 2.184-4.869 4.869v8.909c0 2.685 2.184 4.869 4.869 4.869h8.909c0.584 0 1.157-0.104 1.701-0.307 1.893-0.707 3.165-2.539 3.165-4.563v-4.456c0.003-0.485-0.389-0.88-0.875-0.88z"/><path d="m17.757 1.741c-2.483 0-4.504 2.019-4.504 4.501s2.021 4.504 4.504 4.504c2.483 0 4.504-2.019 4.504-4.504-0.003-2.483-2.021-4.501-4.504-4.501zm0 7.248c-1.512 0-2.744-1.232-2.744-2.744 0-1.515 1.229-2.744 2.744-2.744s2.744 1.229 2.744 2.744c0 1.512-1.232 2.744-2.744 2.744z"/><path d="m8.645 11.08c0 0.485 0.395 0.88 0.88 0.88h3.077c0.485 0 0.88-0.395 0.88-0.88s-0.395-0.88-0.88-0.88h-3.077c-0.485 0-0.88 0.395-0.88 0.88z"/><path d="m12.603 13.915h-3.077c-0.485 0-0.88 0.395-0.88 0.88s0.395 0.88 0.88 0.88h3.077c0.485 0 0.88-0.395 0.88-0.88 0-0.488-0.395-0.88-0.88-0.88z"/></g></svg><svg xmlns:xlink="http://www.w3.org/1999/xlink" height="24" width="24" version="1.1" viewBox="0 0 24 24" id="trending-down-gray" y="144"><path d="m9.8 20.659h1.671v-19.49h1.114v19.49h1.671l-2.227 2.227-2.227-2.227z" fill="#ccc"/></svg><svg xmlns:xlink="http://www.w3.org/1999/xlink" id="trending-left-orange" xml:space="preserve" height="24" viewBox="0 0 24 24" width="24" version="1.1" y="168" x="0px" enable-background="new 0 0 24 24"><path d="m3.397 9.8v1.671h19.49v1.114h-19.49v1.671l-2.227-2.227 2.227-2.227v-0.002z" fill="#C66F21"/></svg><svg xmlns:xlink="http://www.w3.org/1999/xlink" id="trending-right-orange" xml:space="preserve" height="24" viewBox="0 0 24 24" width="24" version="1.1" y="192" x="0px" enable-background="new 0 0 24 24"><path d="m20.659 14.256v-1.672h-19.489v-1.113h19.489v-1.671l2.228 2.227-2.228 2.227v0.002z" fill="#C66F21"/></svg><svg xmlns:xlink="http://www.w3.org/1999/xlink" height="24" width="24" version="1.1" viewBox="0 0 24 24" id="trovit" y="216"><g fill="#C66F21"><path d="m14.437 5.699c0.611 0.088 1.208 0.24 1.8 0.421 1.029 0.317 2.003 0.757 2.917 1.331 0.064 0.04 0.149 0.064 0.224 0.064 1.075 0.005 2.149 0.003 3.221 0.003 0.085 0 0.173 0.011 0.259 0.013 0 0.021 0.003 0.029 0 0.035-0.051 0.077-0.101 0.155-0.152 0.232-0.365 0.56-0.677 1.144-0.859 1.789-0.021 0.069-0.024 0.128 0.021 0.195 0.957 1.373 1.261 2.883 0.861 4.507-0.349 1.427-1.168 2.539-2.408 3.325-0.888 0.563-1.869 0.832-2.915 0.837-0.44 0.003-0.877-0.056-1.307-0.168-1.048-0.272-1.944-0.795-2.685-1.584-0.099-0.104-0.189-0.213-0.293-0.331-0.392 0.584-0.776 1.157-1.171 1.747-0.392-0.587-0.773-1.155-1.152-1.72-0.027 0.013-0.035 0.016-0.04 0.021l-0.024 0.024c-0.896 1.056-2.021 1.704-3.392 1.92-0.763 0.123-1.52 0.077-2.261-0.128-1.051-0.288-1.944-0.843-2.664-1.661-0.704-0.8-1.144-1.728-1.309-2.781-0.189-0.987 0.04-1.933 0.099-2.165 0.165-0.669 0.456-1.285 0.853-1.851 0.029-0.04 0.037-0.109 0.024-0.16-0.163-0.595-0.44-1.133-0.768-1.651-0.083-0.131-0.184-0.253-0.275-0.381v-0.043c0.019 0.003 0.037 0.005 0.056 0.005h3.299c0.048 0 0.101-0.019 0.141-0.045 0.773-0.496 1.595-0.888 2.459-1.195 0.624-0.219 1.259-0.392 1.909-0.517 0.629-0.123 1.261-0.208 1.899-0.251 1.56-0.117 2.805 0.048 3.632 0.163zm-1.378 7.261c0 2.413 1.957 4.387 4.363 4.379 2.416-0.008 4.365-1.925 4.365-4.368-0.003-2.517-2.043-4.405-4.456-4.357-2.384 0.051-4.248 1.971-4.272 4.347zm-6.547-4.363c-2.349-0.019-4.397 1.939-4.355 4.437 0.04 2.328 1.957 4.301 4.405 4.28 2.392-0.021 4.315-1.973 4.32-4.339 0.003-2.432-1.944-4.379-4.371-4.379zm0.219-1.138c1.325 0.08 2.491 0.544 3.477 1.437 0.981 0.893 1.557 2.008 1.768 3.32 0.213-1.296 0.776-2.4 1.739-3.285 0.965-0.885 2.115-1.349 3.421-1.448-1.549-0.688-3.181-0.981-4.861-1.013-1.912-0.037-3.771 0.245-5.544 0.989z"/><path d="m17.416 10.205c1.493-0.003 2.704 1.2 2.704 2.693 0 1.499-1.189 2.656-2.592 2.709-1.568 0.061-2.821-1.189-2.821-2.701 0-1.533 1.261-2.725 2.709-2.701zm1.76 2.702c0-0.973-0.789-1.765-1.755-1.765-0.979 0-1.773 0.787-1.779 1.757-0.003 0.968 0.797 1.773 1.765 1.773 0.973 0.005 1.768-0.795 1.768-1.765z"/><path d="m6.456 10.205c1.493-0.003 2.704 1.203 2.701 2.696-0.005 1.512-1.195 2.643-2.573 2.707-1.573 0.072-2.843-1.181-2.84-2.707 0.003-1.541 1.275-2.72 2.712-2.696zm1.76 2.696c-0.003-0.979-0.797-1.76-1.784-1.76-0.955 0.003-1.755 0.808-1.752 1.765 0.003 0.971 0.803 1.765 1.773 1.768 0.965 0.003 1.765-0.803 1.763-1.773z"/><path d="m17.416 12.011c0.496 0 0.901 0.405 0.896 0.899s-0.403 0.893-0.891 0.893c-0.501 0-0.904-0.397-0.904-0.888 0.003-0.509 0.392-0.904 0.899-0.904z"/><path d="m6.451 12.003c0.501 0 0.907 0.4 0.909 0.901 0.003 0.496-0.405 0.904-0.907 0.907-0.512 0-0.907-0.395-0.907-0.909 0-0.507 0.395-0.899 0.904-0.899z"/></g></svg><svg xmlns:xlink="http://www.w3.org/1999/xlink" height="24" width="24" version="1.1" viewBox="0 0 24 24" id="twitter" y="240"><path d="m20.779 7.495c0.01 0.194 0.013 0.391 0.013 0.586 0 5.988-4.556 12.89-12.888 12.89-2.56 0-4.939-0.75-6.944-2.036 0.355 0.042 0.715 0.064 1.08 0.064 2.124 0 4.076-0.725 5.626-1.938-1.981-0.037-3.655-1.345-4.231-3.145 0.276 0.052 0.56 0.079 0.852 0.079 0.414 0 0.815-0.054 1.194-0.157-2.072-0.418-3.634-2.248-3.634-4.444v-0.056c0.611 0.34 1.31 0.544 2.052 0.568-1.216-0.814-2.016-2.198-2.016-3.772 0-0.829 0.223-1.608 0.614-2.278 2.233 2.742 5.573 4.544 9.337 4.734-0.077-0.332-0.116-0.677-0.116-1.033 0-2.501 2.027-4.528 4.529-4.528 1.303 0 2.48 0.548 3.307 1.429 1.031-0.204 2-0.581 2.876-1.099-0.338 1.057-1.057 1.945-1.992 2.506 0.917-0.11 1.788-0.352 2.602-0.713-0.607 0.91-1.375 1.706-2.261 2.344z" fill="#C66F21"/></svg><svg xmlns:xlink="http://www.w3.org/1999/xlink" height="24" width="24" version="1.1" viewBox="0 0 24 24" id="vk" y="264"><path d="m21.362 14.758s1.94 1.916 2.42 2.803c0.013 0.019 0.019 0.034 0.022 0.042 0.196 0.328 0.244 0.584 0.148 0.774-0.162 0.313-0.71 0.47-0.896 0.484h-3.43c-0.239 0-0.736-0.062-1.34-0.48-0.462-0.323-0.922-0.854-1.367-1.374-0.665-0.772-1.24-1.441-1.822-1.441-0.074 0-0.146 0.012-0.216 0.036-0.44 0.139-1 0.767-1 2.438 0 0.523-0.413 0.821-0.702 0.821h-1.571c-0.535 0-3.322-0.187-5.792-2.792-3.028-3.19-5.747-9.588-5.773-9.644-0.169-0.414 0.186-0.64 0.57-0.64h3.463c0.464 0 0.616 0.281 0.721 0.533 0.122 0.289 0.576 1.446 1.32 2.746 1.205 2.114 1.945 2.975 2.537 2.975 0.112 0 0.217-0.028 0.317-0.084 0.773-0.425 0.629-3.185 0.593-3.754 0-0.11-0.001-1.232-0.397-1.775-0.283-0.389-0.766-0.54-1.057-0.595 0.078-0.113 0.244-0.286 0.456-0.388 0.529-0.264 1.486-0.302 2.435-0.302h0.527c1.03 0.014 1.296 0.08 1.67 0.175 0.754 0.18 0.768 0.668 0.702 2.332-0.019 0.475-0.04 1.01-0.04 1.64 0 0.134-0.006 0.284-0.006 0.437-0.023 0.853-0.053 1.814 0.55 2.209 0.077 0.048 0.167 0.074 0.26 0.074 0.209 0 0.834 0 2.53-2.91 0.744-1.285 1.32-2.801 1.36-2.915 0.034-0.064 0.134-0.242 0.257-0.314 0.094-0.058 0.218-0.067 0.283-0.067h4.074c0.444 0 0.745 0.067 0.804 0.235 0.098 0.272-0.019 1.104-1.879 3.619-0.313 0.419-0.588 0.781-0.829 1.098-1.686 2.213-1.686 2.324 0.1 4.004z" fill="#C66F21"/></svg><svg xmlns:xlink="http://www.w3.org/1999/xlink" height="24" width="24" version="1.1" viewBox="0 0 24 24" id="weather" y="288"><g fill="#fff"><path d="m3.691 11.856l-1.613 1.379 2.12-0.085c-0.12-0.197-0.224-0.405-0.309-0.624-0.088-0.221-0.152-0.445-0.197-0.669z"/><path d="m11.019 9.733c0.024 0.064 0.045 0.131 0.067 0.197 0.099-0.299 0.227-0.581 0.381-0.851l-0.755 0.029c0.115 0.195 0.219 0.403 0.307 0.624z"/><path d="m10.347 8.616l0.709-2-1.792 1.133c0.2 0.112 0.395 0.237 0.579 0.387s0.352 0.309 0.504 0.48z"/><path d="m8.704 7.507l-0.384-2.088-0.989 1.88c0.229-0.005 0.464 0.011 0.696 0.045s0.461 0.088 0.677 0.163z"/><path d="m6.056 7.563c0.221-0.085 0.443-0.155 0.669-0.197l-1.379-1.613 0.085 2.12c0.195-0.117 0.405-0.221 0.624-0.309z"/><path d="m4.461 8.739c0.149-0.187 0.307-0.355 0.477-0.507l-1.997-0.709 1.133 1.792c0.109-0.195 0.237-0.392 0.387-0.576z"/><path d="m3.664 10.555c0.037-0.232 0.093-0.459 0.163-0.677l-2.085 0.387 1.877 0.987c-0.003-0.227 0.011-0.461 0.045-0.696z"/><path d="m6.261 13.173c0.488 0 0.467 0.115 0.467 0 0-1.493 1.213-2.707 2.704-2.707 0.373 0 0.728 0.08 1.053 0.219-0.189-1.301-1.208-2.381-2.573-2.587-1.675-0.256-3.237 0.899-3.491 2.568-0.155 1.019 0.216 1.997 0.901 2.661 0.296-0.096 0.611-0.155 0.939-0.155z"/><path d="m18.629 19.269c-0.045 0-0.085-0.003-0.117-0.003-0.032 0.003-0.064 0.003-0.096 0.003h-11.725c-0.144 0-0.291-0.013-0.44-0.04-0.8-0.12-1.533-0.52-2.067-1.133-0.544-0.621-0.843-1.419-0.843-2.245 0-1.747 1.317-3.195 3.011-3.395 0.395-1.349 1.643-2.339 3.117-2.339 0.192 0 0.381 0.016 0.568 0.051 0.707-1.944 2.571-3.304 4.723-3.304 1.317 0 2.563 0.507 3.507 1.424 0.752 0.733 1.248 1.664 1.435 2.677 0.763 0.2 1.456 0.611 2.005 1.195 0.736 0.784 1.144 1.811 1.144 2.888 0 2.325-1.893 4.221-4.221 4.221zm-0.528-1.896l0.416 0.021c0.024 0 0.045 0.003 0.067 0.005 0.016 0 0.037 0.003 0.043 0.003 1.299 0 2.355-1.056 2.355-2.355 0-1.232-0.965-2.264-2.197-2.349l-0.845-0.059-0.024-0.848c-0.045-1.717-1.432-3.064-3.155-3.064-1.6 0-2.949 1.197-3.133 2.784l-0.171 1.467-1.251-0.784c-0.219-0.136-0.472-0.211-0.733-0.211-0.76 0-1.381 0.619-1.381 1.381h-0.933v-0.933l-0.197 0.933 0.197 0.933h-0.397c-0.856 0-1.552 0.696-1.552 1.555 0 0.765 0.571 1.424 1.325 1.533l0.035 0.005c0.045 0.008 0.085 0.013 0.123 0.013h11.384l0.027-0.032z"/></g></svg></svg>
