<?xml version="1.0" encoding="utf-8"?>
<!-- Generator: Adobe Illustrator 16.0.0, SVG Export Plug-In . SVG Version: 6.00 Build 0)  -->
<!DOCTYPE svg PUBLIC "-//W3C//DTD SVG 1.1//EN" "http://www.w3.org/Graphics/SVG/1.1/DTD/svg11.dtd">
<svg version="1.1" id="Layer_1" xmlns="http://www.w3.org/2000/svg" xmlns:xlink="http://www.w3.org/1999/xlink" x="0px" y="0px"
	 width="24px" height="24px" viewBox="0 0 24 24" enable-background="new 0 0 24 24" xml:space="preserve">
<path fill="#FFFFFF" d="M9.901,11.56c-0.845,0.013-1.283-0.184-1.832,0.237c-0.72,0.549-1.419,2.188-1.64,2.496
	c-0.424,0.589-0.797,0.596-1.339,0.627c-0.539,0.029-0.957,0.907-1.499,1.205s-1.544,0.373-1.544,0.373s0.6,0.251,1.709-0.02
	c1.109-0.27,0.816-0.922,1.661-0.916c0.845,0.004,1.285-0.299,1.544-0.66c0.501-0.698,0.8-2.468,2.064-2.563
	c2.808-0.208,4.04-2.064,4.04-2.064S11.78,11.529,9.901,11.56L9.901,11.56z"/>
<path fill="#FFFFFF" d="M19.747,10.536c1.248,0.192,2.203,0.037,2.203,0.037s-2.456-0.757-4.523-2.448
	c-0.655-0.536-1.239-1.024-1.866-0.464c-0.613,0.547-0.908,1.248-2.012,2.659c-0.236,0.304-1.144,1.317-1.781,1.672
	c-1.096,0.607-2.603,0.669-2.603,0.669s1.333,0.274,1.952,0.211c2.229-0.229,4.484-3.413,4.484-3.413
	c0.405-0.528,0.856-0.301,1.438,0.077c0.148,0.099,3.117,1.896,3.163,2.219c0.026,0.184-2.363-0.349-2.604-0.053
	c-0.293,0.36,1.811,1.7,1.811,1.7s-1.268-0.927-0.766-1.187c0.355-0.184,2.531,0.31,2.709,0.101
	C21.667,11.944,19.747,10.536,19.747,10.536z"/>
</svg>
