<?xml version="1.0" encoding="utf-8"?>
<!-- Generated by IcoMoon.io -->
<!DOCTYPE svg PUBLIC "-//W3C//DTD SVG 1.1//EN" "http://www.w3.org/Graphics/SVG/1.1/DTD/svg11.dtd">
<svg version="1.1" xmlns="http://www.w3.org/2000/svg" xmlns:xlink="http://www.w3.org/1999/xlink" width="24" height="24" viewBox="0 0 24 24">
<path fill='#a2a2a2' d="M19.509 12.056c-0.485 0-0.88 0.395-0.88 0.88v4.456c0 1.291-0.813 2.464-2.021 2.915-0.347 0.131-0.712 0.195-1.088 0.195h-8.912c-1.715 0-3.109-1.395-3.109-3.109v-8.909c0-1.715 1.395-3.109 3.109-3.109h4.456c0.485 0 0.88-0.395 0.88-0.88s-0.395-0.88-0.88-0.88h-4.456c-2.685 0-4.869 2.184-4.869 4.869v8.909c0 2.685 2.184 4.869 4.869 4.869h8.909c0.584 0 1.157-0.104 1.701-0.307 1.893-0.707 3.165-2.539 3.165-4.563v-4.456c0.003-0.485-0.389-0.88-0.875-0.88v0z"></path>
<path fill='#a2a2a2' d="M17.757 1.741c-2.483 0-4.504 2.019-4.504 4.501s2.021 4.504 4.504 4.504c2.483 0 4.504-2.019 4.504-4.504-0.003-2.483-2.021-4.501-4.504-4.501v0zM17.757 8.989c-1.512 0-2.744-1.232-2.744-2.744 0-1.515 1.229-2.744 2.744-2.744s2.744 1.229 2.744 2.744c0 1.512-1.232 2.744-2.744 2.744v0z"></path>
<path fill='#a2a2a2' d="M8.645 11.080c0 0.485 0.395 0.88 0.88 0.88h3.077c0.485 0 0.88-0.395 0.88-0.88s-0.395-0.88-0.88-0.88h-3.077c-0.485 0-0.88 0.395-0.88 0.88v0z"></path>
<path fill='#a2a2a2' d="M12.603 13.915h-3.077c-0.485 0-0.88 0.395-0.88 0.88s0.395 0.88 0.88 0.88h3.077c0.485 0 0.88-0.395 0.88-0.88 0-0.488-0.395-0.88-0.88-0.88v0z"></path>
</svg>
