<?xml version="1.0" encoding="utf-8"?>
<!-- Generated by IcoMoon.io -->
<!DOCTYPE svg PUBLIC "-//W3C//DTD SVG 1.1//EN" "http://www.w3.org/Graphics/SVG/1.1/DTD/svg11.dtd">
<svg version="1.1" xmlns="http://www.w3.org/2000/svg" xmlns:xlink="http://www.w3.org/1999/xlink" width="24" height="24" viewBox="0 0 24 24">
<path fill='#C66F21' d="M14.437 5.699c0.611 0.088 1.208 0.24 1.8 0.421 1.029 0.317 2.003 0.757 2.917 1.331 0.064 0.040 0.149 0.064 0.224 0.064 1.075 0.005 2.149 0.003 3.221 0.003 0.085 0 0.173 0.011 0.259 0.013 0 0.021 0.003 0.029 0 0.035-0.051 0.077-0.101 0.155-0.152 0.232-0.365 0.56-0.677 1.144-0.859 1.789-0.021 0.069-0.024 0.128 0.021 0.195 0.957 1.373 1.261 2.883 0.861 4.507-0.349 1.427-1.168 2.539-2.408 3.325-0.888 0.563-1.869 0.832-2.915 0.837-0.44 0.003-0.877-0.056-1.307-0.168-1.048-0.272-1.944-0.795-2.685-1.584-0.099-0.104-0.189-0.213-0.293-0.331-0.392 0.584-0.776 1.157-1.171 1.747-0.392-0.587-0.773-1.155-1.152-1.72-0.027 0.013-0.035 0.016-0.040 0.021-0.008 0.008-0.016 0.016-0.024 0.024-0.896 1.056-2.021 1.704-3.392 1.92-0.763 0.123-1.52 0.077-2.261-0.128-1.051-0.288-1.944-0.843-2.664-1.661-0.704-0.8-1.144-1.728-1.309-2.781-0.189-0.987 0.040-1.933 0.099-2.165 0.165-0.669 0.456-1.285 0.853-1.851 0.029-0.040 0.037-0.109 0.024-0.16-0.163-0.595-0.44-1.133-0.768-1.651-0.083-0.131-0.184-0.253-0.275-0.381v-0.043c0.019 0.003 0.037 0.005 0.056 0.005 1.099 0 2.197 0 3.299 0 0.048 0 0.101-0.019 0.141-0.045 0.773-0.496 1.595-0.888 2.459-1.195 0.624-0.219 1.259-0.392 1.909-0.517 0.629-0.123 1.261-0.208 1.899-0.251 1.56-0.117 2.805 0.048 3.632 0.163v0zM13.059 12.96c0 2.413 1.957 4.387 4.363 4.379 2.416-0.008 4.365-1.925 4.365-4.368-0.003-2.517-2.043-4.405-4.456-4.357-2.384 0.051-4.248 1.971-4.272 4.347v0zM6.512 8.597c-2.349-0.019-4.397 1.939-4.355 4.437 0.040 2.328 1.957 4.301 4.405 4.28 2.392-0.021 4.315-1.973 4.32-4.339 0.003-2.432-1.944-4.379-4.371-4.379v0zM6.731 7.459c1.325 0.080 2.491 0.544 3.477 1.437 0.981 0.893 1.557 2.008 1.768 3.32 0.213-1.296 0.776-2.4 1.739-3.285 0.965-0.885 2.115-1.349 3.421-1.448-1.549-0.688-3.181-0.981-4.861-1.013-1.912-0.037-3.771 0.245-5.544 0.989v0z"></path>
<path fill='#C66F21' d="M17.416 10.205c1.493-0.003 2.704 1.2 2.704 2.693 0 1.499-1.189 2.656-2.592 2.709-1.568 0.061-2.821-1.189-2.821-2.701 0-1.533 1.261-2.725 2.709-2.701v0zM19.176 12.907c0-0.973-0.789-1.765-1.755-1.765-0.979 0-1.773 0.787-1.779 1.757-0.003 0.968 0.797 1.773 1.765 1.773 0.973 0.005 1.768-0.795 1.768-1.765v0z"></path>
<path fill='#C66F21' d="M6.456 10.205c1.493-0.003 2.704 1.203 2.701 2.696-0.005 1.512-1.195 2.643-2.573 2.707-1.573 0.072-2.843-1.181-2.84-2.707 0.003-1.541 1.275-2.72 2.712-2.696v0zM8.216 12.901c-0.003-0.979-0.797-1.76-1.784-1.76-0.955 0.003-1.755 0.808-1.752 1.765 0.003 0.971 0.803 1.765 1.773 1.768 0.965 0.003 1.765-0.803 1.763-1.773v0z"></path>
<path fill='#C66F21' d="M17.416 12.011c0.496 0 0.901 0.405 0.896 0.899s-0.403 0.893-0.891 0.893c-0.501 0-0.904-0.397-0.904-0.888 0.003-0.509 0.392-0.904 0.899-0.904v0z"></path>
<path fill='#C66F21' d="M6.451 12.003c0.501 0 0.907 0.4 0.909 0.901 0.003 0.496-0.405 0.904-0.907 0.907-0.512 0-0.907-0.395-0.907-0.909 0-0.507 0.395-0.899 0.904-0.899v0z"></path>
</svg>
