<?xml version="1.0" encoding="utf-8"?>
<!-- Generated by IcoMoon.io -->
<!DOCTYPE svg PUBLIC "-//W3C//DTD SVG 1.1//EN" "http://www.w3.org/Graphics/SVG/1.1/DTD/svg11.dtd">
<svg version="1.1" xmlns="http://www.w3.org/2000/svg" xmlns:xlink="http://www.w3.org/1999/xlink" width="24" height="24" viewBox="0 0 24 24">
<path fill='#C66F21' d="M21.362 14.758c0 0 1.94 1.916 2.42 2.803 0.013 0.019 0.019 0.034 0.022 0.042 0.196 0.328 0.244 0.584 0.148 0.774-0.162 0.313-0.71 0.47-0.896 0.484 0 0-3.334 0-3.43 0-0.239 0-0.736-0.062-1.34-0.48-0.462-0.323-0.922-0.854-1.367-1.374-0.665-0.772-1.24-1.441-1.822-1.441-0.074 0-0.146 0.012-0.216 0.036-0.44 0.139-1 0.767-1 2.438 0 0.523-0.413 0.821-0.702 0.821 0 0-1.498 0-1.571 0-0.535 0-3.322-0.187-5.792-2.792-3.028-3.19-5.747-9.588-5.773-9.644-0.169-0.414 0.186-0.64 0.57-0.64h3.463c0.464 0 0.616 0.281 0.721 0.533 0.122 0.289 0.576 1.446 1.32 2.746 1.205 2.114 1.945 2.975 2.537 2.975 0.112 0 0.217-0.028 0.317-0.084 0.773-0.425 0.629-3.185 0.593-3.754 0-0.11-0.001-1.232-0.397-1.775-0.283-0.389-0.766-0.54-1.057-0.595 0.078-0.113 0.244-0.286 0.456-0.388 0.529-0.264 1.486-0.302 2.435-0.302h0.527c1.030 0.014 1.296 0.080 1.67 0.175 0.754 0.18 0.768 0.668 0.702 2.332-0.019 0.475-0.040 1.010-0.040 1.64 0 0.134-0.006 0.284-0.006 0.437-0.023 0.853-0.053 1.814 0.55 2.209 0.077 0.048 0.167 0.074 0.26 0.074 0.209 0 0.834 0 2.53-2.91 0.744-1.285 1.32-2.801 1.36-2.915 0.034-0.064 0.134-0.242 0.257-0.314 0.094-0.058 0.218-0.067 0.283-0.067h4.074c0.444 0 0.745 0.067 0.804 0.235 0.098 0.272-0.019 1.104-1.879 3.619-0.313 0.419-0.588 0.781-0.829 1.098-1.686 2.213-1.686 2.324 0.1 4.004z"></path>
</svg>
