<?xml version="1.0" encoding="utf-8"?>
<!-- Generated by IcoMoon.io -->
<!DOCTYPE svg PUBLIC "-//W3C//DTD SVG 1.1//EN" "http://www.w3.org/Graphics/SVG/1.1/DTD/svg11.dtd">
<svg version="1.1" xmlns="http://www.w3.org/2000/svg" xmlns:xlink="http://www.w3.org/1999/xlink" width="24" height="24" viewBox="0 0 24 24">
<path fill='#fff' d="M3.691 11.856l-1.613 1.379 2.12-0.085c-0.12-0.197-0.224-0.405-0.309-0.624-0.088-0.221-0.152-0.445-0.197-0.669v0z"></path>
<path fill='#fff' d="M11.019 9.733c0.024 0.064 0.045 0.131 0.067 0.197 0.099-0.299 0.227-0.581 0.381-0.851l-0.755 0.029c0.115 0.195 0.219 0.403 0.307 0.624v0z"></path>
<path fill='#fff' d="M10.347 8.616l0.709-2-1.792 1.133c0.2 0.112 0.395 0.237 0.579 0.387s0.352 0.309 0.504 0.48v0z"></path>
<path fill='#fff' d="M8.704 7.507l-0.384-2.088-0.989 1.88c0.229-0.005 0.464 0.011 0.696 0.045s0.461 0.088 0.677 0.163v0z"></path>
<path fill='#fff' d="M6.056 7.563c0.221-0.085 0.443-0.155 0.669-0.197l-1.379-1.613 0.085 2.12c0.195-0.117 0.405-0.221 0.624-0.309v0z"></path>
<path fill='#fff' d="M4.461 8.739c0.149-0.187 0.307-0.355 0.477-0.507l-1.997-0.709 1.133 1.792c0.109-0.195 0.237-0.392 0.387-0.576v0z"></path>
<path fill='#fff' d="M3.664 10.555c0.037-0.232 0.093-0.459 0.163-0.677l-2.085 0.387 1.877 0.987c-0.003-0.227 0.011-0.461 0.045-0.696v0z"></path>
<path fill='#fff' d="M6.261 13.173c0.488 0 0.467 0.115 0.467 0 0-1.493 1.213-2.707 2.704-2.707 0.373 0 0.728 0.080 1.053 0.219-0.189-1.301-1.208-2.381-2.573-2.587-1.675-0.256-3.237 0.899-3.491 2.568-0.155 1.019 0.216 1.997 0.901 2.661 0.296-0.096 0.611-0.155 0.939-0.155v0z"></path>
<path fill='#fff' d="M18.629 19.269c-0.045 0-0.085-0.003-0.117-0.003-0.032 0.003-0.064 0.003-0.096 0.003h-11.725c-0.144 0-0.291-0.013-0.44-0.040-0.8-0.12-1.533-0.52-2.067-1.133-0.544-0.621-0.843-1.419-0.843-2.245 0-1.747 1.317-3.195 3.011-3.395 0.395-1.349 1.643-2.339 3.117-2.339 0.192 0 0.381 0.016 0.568 0.051 0.707-1.944 2.571-3.304 4.723-3.304 1.317 0 2.563 0.507 3.507 1.424 0.752 0.733 1.248 1.664 1.435 2.677 0.763 0.2 1.456 0.611 2.005 1.195 0.736 0.784 1.144 1.811 1.144 2.888 0 2.325-1.893 4.221-4.221 4.221zM18.101 17.373l0.416 0.021c0.024 0 0.045 0.003 0.067 0.005 0.016 0 0.037 0.003 0.043 0.003 1.299 0 2.355-1.056 2.355-2.355 0-1.232-0.965-2.264-2.197-2.349l-0.845-0.059-0.024-0.848c-0.045-1.717-1.432-3.064-3.155-3.064-1.6 0-2.949 1.197-3.133 2.784l-0.171 1.467-1.251-0.784c-0.219-0.136-0.472-0.211-0.733-0.211-0.76 0-1.381 0.619-1.381 1.381h-0.933v-0.933l-0.197 0.933 0.197 0.933h-0.397c-0.856 0-1.552 0.696-1.552 1.555 0 0.765 0.571 1.424 1.325 1.533l0.035 0.005c0.045 0.008 0.085 0.013 0.123 0.013h11.384l0.027-0.032z"></path>
</svg>
